<svg xmlns="http://www.w3.org/2000/svg" width="1400" height="680" viewBox="0 0 1400 680" role="img" aria-labelledby="title desc"><title id="title">长沙雨花门店的锁单反馈</title><desc id="desc">长沙小鹏直营一个月跟进台账：长沙雨花门店三条小红书跟进记录均取得回复、微信及手机号，销售反馈锁单。</desc><g font-family="PingFang SC, Noto Sans CJK SC, Noto Sans SC, Microsoft YaHei, sans-serif"><rect x="0" y="0" width="1400" height="680" rx="0" fill="#F8F7F2" stroke="none" /><rect x="64" y="48" width="6" height="25" rx="3" fill="#13A6A2" stroke="none" /><text x="85" y="69" font-size="22" fill="#13A6A2" font-weight="600" text-anchor="start">线索猎手 · 门店销售反馈</text><text x="64" y="134" font-size="42" fill="#142F48" font-weight="650" text-anchor="start">长沙雨花门店的锁单反馈</text><text x="64" y="180" font-size="25" fill="#5E7587" font-weight="400" text-anchor="start">长沙小鹏直营一个月跟进台账</text><line x1="64" y1="207" x2="1336" y2="207" stroke="#DAE6EC" stroke-width="2" /><rect x="64" y="239" width="1272" height="393" rx="22" fill="#FFF" stroke="#DAE6EC" /><rect x="64" y="239" width="1272" height="77" rx="20" fill="#142F48" stroke="none" /><rect x="64" y="287" width="1272" height="29" rx="0" fill="#142F48" stroke="none" /><text x="120.0" y="287" font-size="22" fill="#FFFFFF" font-weight="600" text-anchor="middle">跟进记录</text><text x="266.0" y="287" font-size="22" fill="#FFFFFF" font-weight="600" text-anchor="middle">门店</text><text x="426.0" y="287" font-size="22" fill="#FFFFFF" font-weight="600" text-anchor="middle">渠道</text><text x="586.0" y="287" font-size="22" fill="#FFFFFF" font-weight="600" text-anchor="middle">回复信息</text><text x="766.0" y="287" font-size="22" fill="#FFFFFF" font-weight="600" text-anchor="middle">要到微信号</text><text x="956.0" y="287" font-size="22" fill="#FFFFFF" font-weight="600" text-anchor="middle">要到手机号</text><text x="1196.0" y="287" font-size="22" fill="#FFFFFF" font-weight="600" text-anchor="middle">销售反馈</text><text x="120.0" y="380" font-size="25" fill="#142F48" font-weight="600" text-anchor="middle">记录 A</text><text x="266.0" y="380" font-size="25" fill="#142F48" font-weight="400" text-anchor="middle">长沙雨花</text><text x="426.0" y="380" font-size="25" fill="#142F48" font-weight="400" text-anchor="middle">小红书</text><text x="586.0" y="380" font-size="25" fill="#13A6A2" font-weight="600" text-anchor="middle">是</text><text x="766.0" y="380" font-size="25" fill="#13A6A2" font-weight="600" text-anchor="middle">是</text><text x="956.0" y="380" font-size="25" fill="#13A6A2" font-weight="600" text-anchor="middle">是</text><rect x="1133" y="343" width="126" height="52" rx="16" fill="#FBF1DF" stroke="none" /><text x="1196.0" y="377" font-size="25" fill="#A66A16" font-weight="650" text-anchor="middle">锁单</text><line x1="88" y1="421" x2="1312" y2="421" stroke="#DAE6EC" stroke-width="2" /><rect x="65" y="421" width="1270" height="105" rx="0" fill="#F4F8FA" stroke="none" /><text x="120.0" y="485" font-size="25" fill="#142F48" font-weight="600" text-anchor="middle">记录 B</text><text x="266.0" y="485" font-size="25" fill="#142F48" font-weight="400" text-anchor="middle">长沙雨花</text><text x="426.0" y="485" font-size="25" fill="#142F48" font-weight="400" text-anchor="middle">小红书</text><text x="586.0" y="485" font-size="25" fill="#13A6A2" font-weight="600" text-anchor="middle">是</text><text x="766.0" y="485" font-size="25" fill="#13A6A2" font-weight="600" text-anchor="middle">是</text><text x="956.0" y="485" font-size="25" fill="#13A6A2" font-weight="600" text-anchor="middle">是</text><rect x="1133" y="448" width="126" height="52" rx="16" fill="#FBF1DF" stroke="none" /><text x="1196.0" y="482" font-size="25" fill="#A66A16" font-weight="650" text-anchor="middle">锁单</text><line x1="88" y1="526" x2="1312" y2="526" stroke="#DAE6EC" stroke-width="2" /><text x="120.0" y="590" font-size="25" fill="#142F48" font-weight="600" text-anchor="middle">记录 C</text><text x="266.0" y="590" font-size="25" fill="#142F48" font-weight="400" text-anchor="middle">长沙雨花</text><text x="426.0" y="590" font-size="25" fill="#142F48" font-weight="400" text-anchor="middle">小红书</text><text x="586.0" y="590" font-size="25" fill="#13A6A2" font-weight="600" text-anchor="middle">是</text><text x="766.0" y="590" font-size="25" fill="#13A6A2" font-weight="600" text-anchor="middle">是</text><text x="956.0" y="590" font-size="25" fill="#13A6A2" font-weight="600" text-anchor="middle">是</text><rect x="1133" y="553" width="126" height="52" rx="16" fill="#FBF1DF" stroke="none" /><text x="1196.0" y="587" font-size="25" fill="#A66A16" font-weight="650" text-anchor="middle">锁单</text></g></svg>
